PathFileType	4	(X/Y/Z)	C:/Users/opensim2020/Desktop/walking_exp_matlab/subject02_walking12_straight_01.trc	
DataRate	CameraRate	NumFrames	NumMarkers	Units	OrigDataRate	OrigDataStartFrame	OrigNumFrames	
100.00	100.00	6	42	mm	100.00	519	178	
Frame#	Time	LFHD			RFHD			LBHD			RBHD			C7			T10			CLAV			STRN			RBAK			LSHO			LUPA			LELB			LFRM			LWRA			LWRB			LFIN			RSHO			RUPA			RELB			RFRM			RWRA			RWRB			RFIN			LASI			RASI			LPSI			RPSI			LTHI			LKNE			LTIB			LANK			LHEE			LTOE			RTHI			RKNE			RTIB			RANK			RHEE			RTOE			*39			*40			*41			
		X1	Y1	Z1	X2	Y2	Z2	X3	Y3	Z3	X4	Y4	Z4	X5	Y5	Z5	X6	Y6	Z6	X7	Y7	Z7	X8	Y8	Z8	X9	Y9	Z9	X10	Y10	Z10	X11	Y11	Z11	X12	Y12	Z12	X13	Y13	Z13	X14	Y14	Z14	X15	Y15	Z15	X16	Y16	Z16	X17	Y17	Z17	X18	Y18	Z18	X19	Y19	Z19	X20	Y20	Z20	X21	Y21	Z21	X22	Y22	Z22	X23	Y23	Z23	X24	Y24	Z24	X25	Y25	Z25	X26	Y26	Z26	X27	Y27	Z27	X28	Y28	Z28	X29	Y29	Z29	X30	Y30	Z30	X31	Y31	Z31	X32	Y32	Z32	X33	Y33	Z33	X34	Y34	Z34	X35	Y35	Z35	X36	Y36	Z36	X37	Y37	Z37	X38	Y38	Z38	X39	Y39	Z39	X40	Y40	Z40	X41	Y41	Z41	X42	Y42	Z42	

23	0.220	-992.30182	-1017.29053	1737.01611	-848.52118	-1026.14539	1707.39087	-1016.49915	-1130.43628	1644.20825	-879.21521	-1154.57275	1611.15833	-950.86395	-1186.28589	1511.25574	-938.93945	-1253.65820	1240.87891	-970.95343	-1052.06897	1437.35779	-969.52557	-1008.98724	1260.81763	-884.93396	-1248.14758	1342.34399	-1135.93933	-1126.38464	1485.78418	-1223.96179	-1145.99817	1289.72388	-1243.01855	-1149.10669	1147.82788	-1259.72375	-1117.41797	1018.37390	-1236.28479	-1033.91553	909.23169	-1262.48474	-1082.96863	899.66632	-1268.99414	-1048.96716	842.51770	-771.10065	-1094.09717	1467.63196	-684.16608	-1148.37854	1288.25110	-664.08044	-1161.52576	1143.43774	-637.97577	-1155.80591	1024.27576	-651.13037	-1131.29028	889.33984	-618.41418	-1177.95166	896.84387	-615.19220	-1155.05994	826.51178	-1090.93555	-1062.52612	956.79022	-841.05328	-1025.21606	956.66040	-984.74445	-1254.27136	1022.05591	-868.36694	-1242.27478	1026.70837	-1144.33801	-1160.51990	652.15778	-1122.70752	-1203.53882	467.72635	-1084.43311	-1358.75378	368.73520	-1027.31470	-1497.10242	204.73912	-962.36230	-1515.01831	201.93939	-1081.59851	-1445.52466	67.36584	-776.67017	-1048.92737	655.97302	-837.26483	-1021.04761	454.40042	-840.52283	-1068.14160	270.84610	-891.67993	-1102.93127	84.70663	-950.09045	-1141.93884	32.26510	-880.35907	-953.69086	33.07458	-906.21948	-1133.48401	1778.23633	-3360.43359	2845.24438	1034.19592			 
24	0.230	-992.91840	-1007.70264	1739.71899	-848.80017	-1016.05756	1710.06921	-1016.67749	-1120.60254	1646.65625	-879.27649	-1144.50110	1613.56470	-950.73895	-1176.01843	1513.62817	-938.51404	-1242.98425	1243.08643	-971.14520	-1041.91907	1439.85950	-969.64075	-998.55505	1263.31689	-884.35364	-1237.49243	1344.64966	-1136.02856	-1116.67908	1487.89514	-1223.74341	-1137.71301	1291.64758	-1241.93884	-1141.71460	1149.71948	-1259.13074	-1112.42578	1019.63220	-1234.83044	-1031.29443	908.94653	-1261.57837	-1080.46985	900.41132	-1267.70862	-1047.45691	842.49243	-771.25391	-1083.53284	1470.37390	-683.91516	-1135.77722	1290.21887	-664.19958	-1147.53125	1145.20032	-638.78680	-1140.55176	1026.03162	-652.52759	-1114.84216	891.47949	-619.49536	-1161.79749	898.15466	-616.40894	-1137.81995	828.50452	-1091.08521	-1051.32703	959.64740	-840.07678	-1014.99042	958.35333	-984.92932	-1243.45776	1024.44434	-868.82971	-1232.15442	1028.50305	-1146.47949	-1141.62451	654.70105	-1125.14819	-1179.77808	469.98065	-1085.07129	-1333.89783	370.16327	-1028.25269	-1470.66260	204.50568	-963.14441	-1488.81152	200.09319	-1084.67944	-1415.61011	69.86185	-776.46924	-1043.72791	656.37396	-836.85199	-1019.23077	454.16373	-840.30243	-1067.83362	270.93369	-891.76422	-1102.96265	84.84444	-949.99072	-1141.64636	32.10103	-880.16827	-953.84424	33.01756	-906.37323	-1123.69678	1780.68396	-3360.31616	2845.22412	1034.05273			 
25	0.240	-993.84796	-998.24005	1742.36475	-849.38641	-1005.91949	1712.50232	-1016.92871	-1110.73547	1648.99841	-879.45569	-1134.39050	1615.76038	-950.71393	-1165.74170	1515.80994	-938.13879	-1232.35486	1245.20203	-971.41821	-1031.55103	1442.10168	-969.72119	-988.20093	1265.64697	-883.80585	-1226.91431	1346.88037	-1136.07019	-1106.96826	1489.91748	-1223.12927	-1129.12500	1293.36609	-1241.01172	-1134.54736	1151.69507	-1257.76563	-1107.88660	1021.31537	-1233.45496	-1028.93567	908.66943	-1260.70227	-1078.06604	901.27472	-1266.57507	-1046.24048	842.63849	-771.34802	-1072.77185	1473.13782	-683.73425	-1122.62646	1292.17920	-664.34589	-1133.61926	1147.12378	-639.46503	-1125.63770	1027.91895	-653.96210	-1098.05042	893.66907	-620.58875	-1144.93481	899.71979	-617.61578	-1119.48145	830.38660	-1091.35974	-1040.20776	962.62195	-839.05658	-1005.01221	960.00757	-985.02203	-1232.71851	1026.88489	-869.10278	-1222.09155	1030.32703	-1148.43958	-1122.93213	657.39111	-1127.49829	-1156.20581	472.15656	-1085.86353	-1308.72803	371.26129	-1029.76709	-1443.39624	203.43639	-964.86206	-1462.29382	198.21460	-1087.53821	-1383.91089	71.48962	-776.21210	-1038.88574	657.18604	-836.46039	-1017.45435	454.07950	-840.08582	-1067.46851	271.07513	-891.88129	-1103.08118	85.02795	-950.11237	-1141.61682	32.27012	-879.91547	-953.82214	32.95177	-906.35760	-1113.74988	1782.78955	-3357.28491	2845.86353	1034.27014			 
26	0.250	-994.17719	-988.26465	1744.47180	-849.99506	-995.77020	1714.80334	-1017.23059	-1100.88245	1651.09375	-879.76880	-1124.16711	1617.85657	-950.65314	-1155.43457	1517.85742	-937.81110	-1221.73584	1247.16492	-971.71967	-1021.13177	1444.21313	-970.00867	-977.73822	1267.74927	-883.24469	-1216.28857	1349.02393	-1136.02490	-1097.10559	1491.73816	-1222.58899	-1120.73083	1295.29639	-1240.17505	-1127.57422	1153.63611	-1256.99780	-1103.31079	1022.73431	-1232.40967	-1026.73120	908.49078	-1259.94812	-1075.80798	902.22235	-1265.60022	-1045.21899	842.90497	-771.55219	-1061.97424	1475.83521	-683.36798	-1109.86963	1294.00964	-664.52753	-1119.09448	1148.59497	-640.46332	-1109.25049	1029.41235	-655.20428	-1080.90417	895.95306	-621.58978	-1127.14551	901.16382	-618.69580	-1101.08252	832.34637	-1091.55798	-1029.26624	965.52350	-838.15936	-995.18121	961.58533	-985.07123	-1222.07129	1029.26990	-868.78601	-1212.71741	1032.70593	-1150.48206	-1104.44958	660.23456	-1129.64441	-1132.92017	474.29822	-1086.74878	-1283.27380	371.80942	-1031.94287	-1415.05371	201.10323	-967.16650	-1434.73694	194.79437	-1090.09485	-1350.86426	71.82652	-776.08429	-1033.20667	657.34729	-835.98688	-1016.15692	453.92117	-839.92645	-1066.94348	271.17325	-891.64246	-1103.02612	85.48378	-950.77325	-1141.61035	32.27246	-879.69525	-953.93719	32.95913	-906.91559	-1104.02930	1785.00635	-3357.33203	2845.79321	1034.29712			 
27	0.260	-994.97900	-978.51880	1746.55298	-850.46887	-985.76166	1716.95251	-1017.64423	-1090.99377	1652.91833	-880.13416	-1113.94971	1619.94531	-950.66223	-1145.16309	1519.70728	-937.54553	-1211.20789	1249.00452	-971.99329	-1010.81439	1446.13794	-970.23987	-967.35345	1269.74023	-882.89130	-1205.65295	1350.89612	-1136.08997	-1087.35327	1493.50769	-1222.67737	-1112.88928	1297.28174	-1239.35583	-1120.79114	1155.55811	-1256.32031	-1098.88660	1024.13062	-1231.25183	-1024.87683	908.46021	-1258.99780	-1073.64990	903.06854	-1264.80493	-1044.48450	843.23279	-771.82849	-1051.20520	1478.25818	-683.34589	-1096.89294	1295.72717	-664.74750	-1104.57703	1150.14771	-641.25189	-1093.31653	1031.07117	-656.71643	-1063.41541	897.93976	-622.50189	-1109.41272	902.73962	-619.77740	-1082.27332	834.33118	-1091.78137	-1018.31256	968.48187	-837.37134	-985.30481	963.18854	-985.04150	-1211.52429	1031.50610	-869.59198	-1201.93933	1033.63660	-1152.29553	-1086.31299	663.19141	-1131.49939	-1109.86987	476.61523	-1088.00903	-1257.54675	371.60480	-1034.47180	-1385.96362	197.71239	-970.02081	-1406.17822	189.69533	-1092.83228	-1316.78406	71.40614	-776.14020	-1028.04114	657.95795	-835.93060	-1014.40710	453.81229	-839.91168	-1066.30359	271.21231	-891.75256	-1103.10120	85.67232	-950.80090	-1141.65491	32.40786	-879.45447	-953.86395	32.81829	-907.55682	-1094.17847	1786.99561	-3360.30835	2845.25098	1034.28540			 
28	0.270	-995.35046	-968.47943	1748.20081	-851.25903	-975.58966	1718.89648	-1018.08612	-1081.04211	1654.54333	-880.41351	-1103.75964	1621.64661	-950.70459	-1134.83875	1521.36133	-937.31018	-1200.80774	1250.74280	-972.36005	-1000.35913	1447.81946	-970.41418	-957.03485	1271.46399	-882.61414	-1195.56384	1352.79773	-1136.19397	-1077.63940	1495.21973	-1222.27222	-1104.48303	1298.73047	-1238.65930	-1114.16211	1157.42285	-1255.48035	-1094.69470	1025.79041	-1230.44324	-1023.17273	908.24969	-1258.54553	-1072.04504	904.22046	-1263.99841	-1043.75244	843.66241	-772.17120	-1040.63184	1480.45471	-683.12451	-1083.87988	1297.36536	-664.95068	-1089.88611	1151.63733	-641.96143	-1076.81299	1032.62878	-658.17615	-1045.67944	899.98682	-623.57465	-1091.55237	904.10187	-620.89795	-1063.10706	836.31329	-1091.85132	-1007.34534	971.35815	-836.63654	-975.70850	964.56396	-985.14087	-1200.97131	1033.42029	-869.79462	-1191.77771	1035.03088	-1153.82312	-1068.49011	665.94049	-1133.04675	-1087.05542	479.03619	-1089.95374	-1231.75085	370.75656	-1037.35022	-1356.00708	193.21410	-972.80829	-1376.82654	184.68739	-1095.81152	-1281.82837	70.21609	-776.40002	-1023.19757	658.14368	-835.87164	-1013.33087	453.89691	-839.97961	-1065.66785	271.32452	-891.92657	-1102.68274	85.77110	-950.72125	-1141.67627	33.02238	-879.26050	-953.92792	32.78611	-908.27081	-1084.35425	1788.65149	-3357.53052	2845.79346	1034.48877			 
